name GIL03_free4.mot
datacolumns 153
datarows 4
range 0.81666666 0.84166664
endheader

                time	           pelvis_tx	           pelvis_ty	           pelvis_tz	         pelvis_tilt	         pelvis_list	     pelvis_rotation	       hip_flexion_r	     hip_adduction_r	      hip_rotation_r	        knee_angle_r	       ankle_angle_r	    subtalar_angle_r	         mtp_angle_r	       hip_flexion_l	     hip_adduction_l	      hip_rotation_l	        knee_angle_l	       ankle_angle_l	    subtalar_angle_l	         mtp_angle_l	    lumbar_extension	      lumbar_bending	     lumbar_rotation	     ground_force_vx	     ground_force_vy	     ground_force_vz	     ground_force_px	     ground_force_py	     ground_force_pz	     ground_force_vx	     ground_force_vy	     ground_force_vz	     ground_force_px	     ground_force_py	     ground_force_pz	     ground_torque_x	     ground_torque_y	     ground_torque_z	     ground_torque_x	     ground_torque_y	     ground_torque_z	    ground_marker_px	    ground_marker_py	    ground_marker_pz	    ground_marker_px	    ground_marker_py	    ground_marker_pz	    ground_marker_px	    ground_marker_py	    ground_marker_pz	    ground_marker_px	    ground_marker_py	    ground_marker_pz	    ground_marker_px	    ground_marker_py	    ground_marker_pz	    ground_marker_px	    ground_marker_py	    ground_marker_pz	    ground_marker_px	    ground_marker_py	    ground_marker_pz	    ground_marker_px	    ground_marker_py	    ground_marker_pz	    ground_marker_px	    ground_marker_py	    ground_marker_pz	    ground_marker_px	    ground_marker_py	    ground_marker_pz	    ground_marker_px	    ground_marker_py	    ground_marker_pz	    ground_marker_px	    ground_marker_py	    ground_marker_pz	    ground_marker_px	    ground_marker_py	    ground_marker_pz	    ground_marker_px	    ground_marker_py	    ground_marker_pz	    ground_marker_px	    ground_marker_py	    ground_marker_pz	    ground_marker_px	    ground_marker_py	    ground_marker_pz	    ground_marker_px	    ground_marker_py	    ground_marker_pz	    ground_marker_px	    ground_marker_py	    ground_marker_pz	    ground_marker_px	    ground_marker_py	    ground_marker_pz	    ground_marker_px	    ground_marker_py	    ground_marker_pz	    ground_marker_px	    ground_marker_py	    ground_marker_pz	    ground_marker_px	    ground_marker_py	    ground_marker_pz	    ground_marker_px	    ground_marker_py	    ground_marker_pz	    ground_marker_px	    ground_marker_py	    ground_marker_pz	    ground_marker_px	    ground_marker_py	    ground_marker_pz	    ground_marker_px	    ground_marker_py	    ground_marker_pz	    ground_marker_px	    ground_marker_py	    ground_marker_pz	    ground_marker_px	    ground_marker_py	    ground_marker_pz	    ground_marker_px	    ground_marker_py	    ground_marker_pz	    ground_marker_px	    ground_marker_py	    ground_marker_pz	    ground_marker_px	    ground_marker_py	    ground_marker_pz	    ground_marker_px	    ground_marker_py	    ground_marker_pz	    ground_marker_px	    ground_marker_py	    ground_marker_pz	    ground_marker_px	    ground_marker_py	    ground_marker_pz	    ground_marker_px	    ground_marker_py	    ground_marker_pz	    ground_marker_px	    ground_marker_py	    ground_marker_pz	    ground_marker_px	    ground_marker_py	    ground_marker_pz	
          0.81666666	          0.88515580	          0.90651178	         -0.24784504	          3.27459621	         -0.40250880	         -4.91348076	         18.47004128	         -0.12196995	          8.78143597	        -42.34461212	          7.06834698	          0.00000000	          0.00000000	          0.59674931	          1.23304498	          2.95270920	        -17.20709991	         13.08018017	          0.00000000	          0.00000000	        -22.91895294	          0.52825898	         10.22185898	          0.00000000	          0.00000000	          0.00000000	          0.41162062	          0.00000000	         -0.15169002	          1.96361445	        298.59140018	         11.64781598	          0.81491772	          0.00000000	         -0.28923050	          0.00000000	          0.00000000	          0.00000000	          0.00000000	         -1.70147485	          0.00000000	          0.82760262	          0.84161186	         -0.25303465	          0.82774025	          0.82675117	         -0.19232865	          0.82768923	          0.82279968	         -0.30973399	          0.96813041	          0.47312933	         -0.17266738	          0.85113621	          0.46286762	         -0.29277396	          0.83054030	          0.11025432	         -0.14187147	          0.75711966	          0.06768953	         -0.28754222	          0.88515580	          0.90651178	         -0.24784504	          0.87679142	          0.90850401	         -0.14816096	          0.89352012	          0.90451956	         -0.34752911	          0.72631502	          0.93007582	         -0.22928807	          0.72973222	          0.93105233	         -0.28430811	          0.97671676	          0.47953755	         -0.11872102	          0.86751294	          0.46148592	         -0.34473684	          0.96448690	          0.46682084	         -0.23160945	          0.84779727	          0.44353008	         -0.25501412	          0.82307971	          0.11624791	         -0.10457981	          0.76564765	          0.06516473	         -0.32500085	          0.85171348	          0.11440790	         -0.17208818	          0.77727711	          0.07529998	         -0.25991812	          0.79901183	          1.34697258	         -0.22076198	          0.89582801	          1.26352751	         -0.18125498	          0.88698804	          1.26863837	         -0.28898934	          0.87725061	          1.27831900	         -0.23848164	          0.91626412	          1.10777092	         -0.24882160	          1.03874862	          0.68634665	         -0.18659085	          0.96815073	          0.63532883	         -0.26723143	          0.95388186	          0.70472795	         -0.13836052	          0.90569514	          0.66978019	         -0.33919936	          0.97719878	          0.62279475	         -0.13787214	          0.91537273	          0.58342147	         -0.33102769	          0.86386710	          0.23411728	         -0.04517130	          0.76573026	          0.18142827	         -0.39565459	          0.86923331	          0.23660126	         -0.08696269	          0.77324021	          0.18679136	         -0.35278922	          0.93115056	          0.06634896	         -0.10417084	          0.88407969	          0.03818659	         -0.29681095	
          0.82499999	          0.89510328	          0.90623772	         -0.24833903	          3.38892841	         -0.49825484	         -4.68155718	         18.83280945	         -0.31312630	          8.75484467	        -39.89236069	          6.69712925	          0.00000000	          0.00000000	         -0.48895836	          1.26926959	          2.90596008	        -16.75343323	         13.55285358	          0.00000000	          0.00000000	        -23.26251793	          0.88775712	         10.05587387	          0.00000000	          0.00000000	          0.00000000	          0.41884798	          0.00000000	         -0.14983745	          3.58638765	        304.59953168	         11.70104909	          0.81755817	          0.00000000	         -0.28922571	          0.00000000	          0.00000000	          0.00000000	          0.00000000	         -1.79839185	          0.00000000	          0.83743191	          0.84113085	         -0.25339848	          0.83808124	          0.82642287	         -0.19249614	          0.83753872	          0.82234842	         -0.30989602	          0.98146707	          0.47381043	         -0.17162679	          0.85492921	          0.46229029	         -0.29297885	          0.86244881	          0.10414825	         -0.14104861	          0.75733942	          0.06770798	         -0.28740579	          0.89510328	          0.90623772	         -0.24833903	          0.88715637	          0.90831852	         -0.14859007	          0.90305018	          0.90415698	         -0.34808800	          0.73616880	          0.92944431	         -0.22883327	          0.73928648	          0.93055457	         -0.28381991	          0.99014592	          0.48052931	         -0.11773305	          0.87103850	          0.46062335	         -0.34501693	          0.97586966	          0.46688837	         -0.22999863	          0.85128939	          0.44313940	         -0.25539190	          0.85442585	          0.10981071	         -0.10382202	          0.76566726	          0.06511867	         -0.32490504	          0.88307995	          0.10945214	         -0.17120747	          0.77769417	          0.07507791	         -0.25997746	          0.80983925	          1.34635115	         -0.22032264	          0.90623975	          1.26244152	         -0.18087053	          0.89748269	          1.26806235	         -0.28869596	          0.88778841	          1.27755356	         -0.23810312	          0.92613178	          1.10690904	         -0.24915886	          1.04985631	          0.68762839	         -0.18669206	          0.97464001	          0.63289118	         -0.26810825	          0.96418744	          0.70525593	         -0.13834117	          0.91231227	          0.66855878	         -0.33964288	          0.98767889	          0.62360829	         -0.13722061	          0.92067647	          0.58201730	         -0.33160147	          0.88866103	          0.22968055	         -0.04439098	          0.76645225	          0.18146363	         -0.39564285	          0.89386636	          0.23227839	         -0.08614999	          0.77403796	          0.18679352	         -0.35278735	          0.96461672	          0.06478931	         -0.10399099	          0.88411707	          0.03813362	         -0.29680601	
          0.83333331	          0.90508330	          0.90580410	         -0.24878153	          3.49651718	         -0.57139653	         -4.42429590	         19.11596489	         -0.54943192	          8.68590927	        -37.31272507	          6.26174593	          0.00000000	          0.00000000	         -1.54626846	          1.30985904	          2.86202431	        -16.34314728	         14.04925537	          0.00000000	          0.00000000	        -23.59837532	          1.32342291	          9.79504299	          0.00000000	          0.00000000	          0.00000000	          0.42568301	          0.00000000	         -0.14797220	          5.27344505	        312.58189199	         12.40428357	          0.82042126	          0.00000000	         -0.28934946	          0.00000000	          0.00000000	          0.00000000	          0.00000000	         -1.85420020	          0.00000000	          0.84737504	          0.84058130	         -0.25377581	          0.84846711	          0.82591814	         -0.19262813	          0.84738863	          0.82177246	         -0.31002182	          0.99431986	          0.47408256	         -0.17051637	          0.85886019	          0.46166986	         -0.29321897	          0.89445496	          0.09851001	         -0.14041756	          0.75753164	          0.06774582	         -0.28730726	          0.90508330	          0.90580410	         -0.24878153	          0.89759213	          0.90793067	         -0.14896677	          0.91257453	          0.90367752	         -0.34859627	          0.74609786	          0.92864960	         -0.22834758	          0.74891162	          0.92993695	         -0.28327852	          1.00306380	          0.48109144	         -0.11667012	          0.87468040	          0.45974195	         -0.34533668	          0.99082267	          0.46666473	         -0.22783284	          0.85460734	          0.44296601	         -0.25570947	          0.88582259	          0.10378240	         -0.10327011	          0.76567256	          0.06508842	         -0.32484272	          0.91454625	          0.10482471	         -0.17055590	          0.77793342	          0.07502348	         -0.25994432	          0.82059824	          1.34559023	         -0.21991985	          0.91670424	          1.26115918	         -0.18048203	          0.90821451	          1.26740456	         -0.28834516	          0.89833134	          1.27663219	         -0.23775265	          0.93631524	          1.10595250	         -0.24960932	          1.06085896	          0.68832928	         -0.18664135	          0.98129517	          0.63039458	         -0.26899701	          0.97419000	          0.70537716	         -0.13796982	          0.91927439	          0.66733962	         -0.34009856	          0.99937749	          0.62434238	         -0.13625647	          0.92612821	          0.58060855	         -0.33214325	          0.91322631	          0.22532408	         -0.04372665	          0.76723409	          0.18150294	         -0.39569101	          0.91842371	          0.22794209	         -0.08543140	          0.77496910	          0.18681577	         -0.35292712	          0.99789506	          0.06371109	         -0.10364716	          0.88416141	          0.03808934	         -0.29682285	
          0.84166664	          0.91509843	          0.90520644	         -0.24917327	          3.59146309	         -0.62794322	         -4.14150763	         19.32681465	         -0.81869817	          8.58490944	        -34.62857819	          5.78992128	          0.00000000	          0.00000000	         -2.56847858	          1.34736121	          2.82701397	        -15.97759438	         14.56531239	          0.00000000	          0.00000000	        -23.89504433	          1.66919816	          9.52804089	          0.00000000	          0.00000000	          0.00000000	          0.43204288	          0.00000000	         -0.14616559	          7.10950559	        321.54807654	         13.66210740	          0.82346790	          0.00000000	         -0.28960223	          0.00000000	          0.00000000	          0.00000000	          0.00000000	         -1.87593420	          0.00000000	          0.85743129	          0.83996940	         -0.25411564	          0.85889363	          0.82524407	         -0.19271627	          0.85723168	          0.82106680	         -0.31010202	          1.00670099	          0.47396013	         -0.16936612	          0.86293137	          0.46099570	         -0.29348665	          0.92639655	          0.09342463	         -0.13999350	          0.75770372	          0.06780620	         -0.28724203	          0.91509843	          0.90520644	         -0.24917327	          0.90810376	          0.90734696	         -0.14929563	          0.92209309	          0.90306598	         -0.34905091	          0.75610971	          0.92770863	         -0.22782463	          0.75861782	          0.92920208	         -0.28268880	          1.01549792	          0.48123777	         -0.11556414	          0.87844515	          0.45883250	         -0.34568718	          1.00494838	          0.46619654	         -0.22578751	          0.85839105	          0.44281292	         -0.25578943	          0.91714871	          0.09823692	         -0.10293181	          0.76567090	          0.06507734	         -0.32480970	          0.94611311	          0.10069211	         -0.17015015	          0.77794135	          0.07514931	         -0.25986403	          0.83138728	          1.34465349	         -0.21950515	          0.92717791	          1.25979018	         -0.18012337	          0.91886598	          1.26652265	         -0.28804681	          0.90888357	          1.27555501	         -0.23742655	          0.94644570	          1.10482490	         -0.24991749	          1.07172036	          0.68844438	         -0.18648306	          0.98816812	          0.62783700	         -0.26986942	          0.98462558	          0.70524198	         -0.13747697	          0.92640346	          0.66607988	         -0.34058586	          1.01120281	          0.62457722	         -0.13531008	          0.93182057	          0.57916772	         -0.33265063	          0.93756187	          0.22108354	         -0.04317156	          0.76808262	          0.18155162	         -0.39579323	          0.94295436	          0.22369204	         -0.08477361	          0.77596235	          0.18686637	         -0.35317189	          1.03090751	          0.06317403	         -0.10311770	          0.88420874	          0.03805058	         -0.29686445	
